<svg xmlns="http://www.w3.org/2000/svg" version="1.1" xmlns:xlink="http://www.w3.org/1999/xlink" xmlns:svgjs="http://svgjs.dev/svgjs" width="1440" height="560" preserveAspectRatio="none" viewBox="0 0 1440 560"><g mask="url(&quot;#SvgjsMask1661&quot;)" fill="none"><rect width="1440" height="560" x="0" y="0" fill="#0e2a47"></rect><use xlink:href="#SvgjsG1670" transform="translate(0, 0)" fill="#0f457b"></use><use xlink:href="#SvgjsG1670" transform="translate(609, 0)" fill="#0f457b"></use><use xlink:href="#SvgjsG1670" transform="translate(1218, 0)" fill="#0f457b"></use></g><defs><mask id="SvgjsMask1661"><rect width="1440" height="560" fill="#ffffff"></rect></mask><g id="SvgjsG1665"><path d="M2.796 14.654h-1.184C0.792 14.653 0.001 14.052 0 13.006c0 0 0.001-7.471 0-7.494 0.001-0.926 0.773-1.629 1.612-1.63h1.184v10.772z m7.448-10.754V2.352c0.004-0.558-0.49-0.914-1.093-0.91 0 0-2.303-0.004-2.294 0-0.6-0.004-1.103 0.352-1.102 0.91v1.548H3.597v10.772h8.823V3.9h-2.176z m-0.81 0H6.547v-1.593h2.887v1.593z m3.779 10.754h1.184c0.814-0.002 1.605-0.602 1.603-1.648 0 0 0.003-7.471 0-7.494 0.003-0.926-0.77-1.63-1.602-1.631h-1.184v10.772z"></path></g><g id="SvgjsG1668"><path d="M11.974 14.95h-0.243c-0.142-0.162-0.195-0.364-0.152-0.614 0.071-0.413 0.364-0.754 0.504-0.803l-0.002-0.005a0.525 0.525 0 0 0 0.346-0.491l0.01-10.776c0-0.289-0.234-0.525-0.517-0.527 0 0-2.157-0.002-2.749-0.006l0.003-1.204c0-0.213-0.123-0.403-0.318-0.485a0.517 0.517 0 0 0-0.564 0.11L4.684 3.773C4.051 4.41 3.55 5.613 3.549 6.518L3.52 14.057c-0.002 1.054 0.844 1.918 1.892 1.923l6.56 0.02c0.285 0 0.518-0.235 0.518-0.521v-0.002c0-0.291-0.229-0.525-0.516-0.526M11.398 2.784c0 0.899-0.008 8.829-0.01 9.73h-5.912l3.702-3.137-0.007-6.597c0.336 0.002 1.916 0.004 2.227 0.004M4.557 14.06s0.002-0.434 0.002-0.498H10.75c-0.089 0.19-0.16 0.391-0.194 0.594-0.049 0.28-0.024 0.542 0.038 0.79l-5.179-0.016c-0.474 0-0.858-0.389-0.858-0.87"></path></g><g id="SvgjsG1666"><path d="M11.675 13.031H3.563V2.436h8.112v10.595z m-4.054 1.54a0.457 0.457 0 1 1 0-0.912 0.457 0.457 0 0 1 0 0.912zM6.921 1.287h1.395c0.196 0 0.196 0.356 0 0.356h-1.397c-0.199 0-0.199-0.356 0-0.356zM11.495 0.409H3.744C3.413 0.409 3.143 0.761 3.143 1.191V14.276c0 0.427 0.267 0.779 0.601 0.778h7.751c0.332 0 0.604-0.35 0.605-0.778V1.191c0-0.432-0.272-0.782-0.605-0.782z" fill-rule="evenodd"></path></g><g id="SvgjsG1662"><path d="M3.236 14.219c1.457 0 2.639-1.182 2.639-2.641 0-1.454-1.182-2.637-2.639-2.637-1.453 0-2.636 1.182-2.636 2.638 0 1.459 1.182 2.641 2.636 2.642zM0 11.578c0-1.787 1.452-3.234 3.236-3.234 1.789 0 3.239 1.446 3.239 3.234 0 1.79-1.45 3.237-3.239 3.237C1.452 14.815 0 13.367 0 11.578z m12.764 2.671c1.453 0 2.636-1.18 2.636-2.639 0-1.457-1.182-2.637-2.636-2.637-1.457 0-2.639 1.181-2.639 2.638 0 1.459 1.182 2.64 2.639 2.64zM9.525 11.61c0-1.789 1.452-3.236 3.239-3.236 1.784 0 3.236 1.446 3.236 3.236s-1.452 3.237-3.236 3.237c-1.788 0-3.239-1.448-3.239-3.237z m0.009-7.898c0.672 0 1.218-0.542 1.218-1.214S10.206 1.28 9.534 1.28s-1.218 0.546-1.218 1.218 0.546 1.214 1.218 1.214z"></path><path d="M9.584 6.666c-0.176 0.004-0.366-0.084-0.506-0.306l-0.791-1.235-1.631 1.614 1.513 0.795c0.622 0.298 0.528 0.844 0.528 0.844v3.424c0 0.388-0.312 0.704-0.701 0.704s-0.701-0.316-0.7-0.704V9.062l-2.623-1.457a1.02 1.02 0 0 1-0.525-0.889 1.003 1.003 0 0 1 0.262-0.683l2.573-2.577c0.32-0.362 0.765-0.304 0.765-0.304 0.539 0 0.823 0.47 0.823 0.47l1.337 2.095 2.03-0.004c0.729 0 0.729 0.952 0 0.952h-2.353z"></path></g><g id="SvgjsG1664"><path d="M7.741 5.269c-0.003 0.523-0.481 1.084-1.101 1.084v8.856c0 1.261-1.714 1.261-1.716 0V6.354c-0.602 0-1.127-0.465-1.126-1.159V0.315c-0.001-0.423 0.612-0.44 0.616 0.017v3.606h0.51V0.299c0-0.389 0.59-0.414 0.591 0.016v3.623h0.526V0.307C6.044-0.103 6.618-0.12 6.616 0.323v3.615h0.526V0.307c-0.002-0.406 0.597-0.423 0.599 0.016v4.946zM12.309 1.449v13.76c0.002 1.229-1.715 1.211-1.717 0V9.746h-0.912V1.449c-0.001-1.932 2.631-1.932 2.629 0z"></path></g><g id="SvgjsG1669"><path d="M9.412 5.113c1.273 0 2.378 0.701 2.988 1.734l3.596 0.004v-1.949c0-0.725-0.584-1.314-1.299-1.314H1.295C0.578 3.588 0 4.176 0 4.902l0.004 1.932 6.418 0.005c0.614-1.029 1.715-1.725 2.99-1.725M3.361 2.97h-1.192l-0.138 0.434h1.429l-0.099-0.434zM14.11 2.738h-1.587L12.242 3.408H14.368l-0.258-0.67zM8.662 3.177h-1.366V2.508h1.366v0.669zM9.914 2.24h-3.857l-0.795 1.176h5.38L9.914 2.24z m2.672 4.955c0.199 0.443 0.316 0.93 0.316 1.449 0 1.949-1.563 3.531-3.49 3.531-1.93 0-3.493-1.582-3.493-3.531 0-0.519 0.116-1.006 0.316-1.451H0V12.514c0 0.721 0.577 1.309 1.295 1.309h13.401c0.716 0 1.299-0.588 1.3-1.309L16 7.195H12.586z"></path><path d="M11.315 7.484a1.717 1.717 0 0 0-0.199-0.278c-0.408-0.496-1.018-0.822-1.704-0.823-0.69 0-1.299 0.324-1.707 0.818-0.075 0.09-0.144 0.182-0.203 0.283-0.205 0.34-0.33 0.734-0.329 1.16 0 1.246 1.002 2.258 2.237 2.258 1.23 0 2.232-1.013 2.232-2.259 0-0.427-0.122-0.819-0.329-1.16"></path></g><g id="SvgjsG1663"><path d="M2.933 13.246a0.85 0.85 0 1 0-0.849 0.849 0.848 0.848 0 0 0 0.849-0.849m7.87 0a0.85 0.85 0 0 0-0.85-0.85c-0.468 0-0.848 0.38-0.848 0.85a0.849 0.849 0 1 0 1.698 0M0.965 10.614a1.722 1.722 0 0 1 0.564-0.916l11.758-9.359C13.573 0.129 13.925 0 14.307 0A1.691 1.691 0 0 1 16 1.695c0 0.546-0.249 1.031-0.644 1.344-0.14 0.122-0.345 0.107-0.463-0.035a0.332 0.332 0 0 1 0.037-0.474c0.254-0.186 0.413-0.492 0.413-0.835 0-0.572-0.465-1.038-1.035-1.038-0.243 0-0.457 0.081-0.632 0.212L10.258 3.592l-1.787 5.173 1.084 2.576c0.127-0.028 0.262-0.053 0.398-0.053 1.084 0 1.96 0.878 1.96 1.958 0 1.086-0.876 1.957-1.96 1.957a1.954 1.954 0 0 1-1.955-1.957 1.938 1.938 0 0 1 0.92-1.656L8.137 9.724l-0.066 0.199c-0.238 0.732-1.029 1.132-1.76 0.889l-3.629-1.197-0.708 0.566a1.056 1.056 0 0 0-0.352 0.564c-0.048 0.212-0.013 0.415 0.057 0.596 0.127-0.024 0.267-0.053 0.404-0.053 1.079 0 1.956 0.878 1.956 1.958 0 1.086-0.876 1.957-1.956 1.957S0.123 14.332 0.123 13.246c0.001-0.708 0.359-1.329 0.923-1.671-0.109-0.301-0.155-0.629-0.081-0.961z" fill-rule="evenodd"></path></g><g id="SvgjsG1667"><path d="M3.822 1.826c0.336 0 0.601-0.274 0.601-0.608 0-0.331-0.265-0.603-0.601-0.603a0.604 0.604 0 0 0-0.604 0.603c0 0.334 0.27 0.608 0.604 0.608m1.773 0c0.334 0 0.604-0.274 0.603-0.608a0.605 0.605 0 0 0-0.604-0.603c-0.331 0-0.601 0.272-0.601 0.603 0 0.334 0.27 0.608 0.601 0.608M13.598 0c0.305 0 0.553 0.245 0.553 0.548v1.88H2.029V0.553C2.029 0.25 2.276 0.002 2.577 0.002L13.598 0zM7.996 13.227c2.158 0 3.904-1.746 3.904-3.904 0-2.156-1.746-3.904-3.904-3.904-2.156 0-3.902 1.748-3.903 3.904 0 2.158 1.747 3.904 3.903 3.904M2 15.996V3.827a0.548 0.548 0 0 1 0.548-0.549h11.024a0.548 0.548 0 0 1 0.548 0.549V16L2 15.996z"></path><path d="M11.16 8.326a3.326 3.326 0 0 1 0.123 0.897c0 1.809-1.472 3.277-3.283 3.277-1.813 0-3.281-1.468-3.281-3.277 0-0.338 0.051-0.661 0.141-0.966v0.007a1.142 1.142 0 0 0 0.845 0.369c0.292 0 0.553-0.104 0.757-0.285h-0.005a1.14 1.14 0 0 0 0.76 0.285c0.3 0 0.574-0.113 0.778-0.307v0.004c0.204 0.19 0.475 0.303 0.781 0.303 0.309 0 0.594-0.122 0.796-0.323v0.005c0.206 0.201 0.486 0.318 0.796 0.318a1.147 1.147 0 0 0 0.787-0.312l0.004 0.004z"></path></g><g id="SvgjsG1670"><use xlink:href="#SvgjsG1662" transform="translate(0, 0) scale(2.1)" fill="#0f457b"></use><use xlink:href="#SvgjsG1663" transform="translate(0, 60.900000000000006) scale(2.1)" fill="#0f457b"></use><use xlink:href="#SvgjsG1664" transform="translate(0, 121.80000000000001) scale(2.1)" fill="#0f457b"></use><use xlink:href="#SvgjsG1665" transform="translate(0, 182.70000000000002) scale(2.1)" fill="#0f457b"></use><use xlink:href="#SvgjsG1663" transform="translate(0, 243.60000000000002) scale(2.1)" fill="#0f457b"></use><use xlink:href="#SvgjsG1666" transform="translate(0, 304.5) scale(2.1)" fill="#0f457b"></use><use xlink:href="#SvgjsG1667" transform="translate(0, 365.40000000000003) scale(2.1)" fill="#0f457b"></use><use xlink:href="#SvgjsG1665" transform="translate(0, 426.30000000000007) scale(2.1)" fill="#0f457b"></use><use xlink:href="#SvgjsG1665" transform="translate(0, 487.20000000000005) scale(2.1)" fill="#0f457b"></use><use xlink:href="#SvgjsG1664" transform="translate(0, 548.1) scale(2.1)" fill="#0f457b"></use><use xlink:href="#SvgjsG1665" transform="translate(60.900000000000006, 0) scale(2.1)" fill="#0f457b"></use><use xlink:href="#SvgjsG1666" transform="translate(60.900000000000006, 60.900000000000006) scale(2.1)" fill="#0f457b"></use><use xlink:href="#SvgjsG1664" transform="translate(60.900000000000006, 121.80000000000001) scale(2.1)" fill="#0f457b"></use><use xlink:href="#SvgjsG1667" transform="translate(60.900000000000006, 182.70000000000002) scale(2.1)" fill="#0f457b"></use><use xlink:href="#SvgjsG1666" transform="translate(60.900000000000006, 243.60000000000002) scale(2.1)" fill="#0f457b"></use><use xlink:href="#SvgjsG1668" transform="translate(60.900000000000006, 304.5) scale(2.1)" fill="#0f457b"></use><use xlink:href="#SvgjsG1662" transform="translate(60.900000000000006, 365.40000000000003) scale(2.1)" fill="#0f457b"></use><use xlink:href="#SvgjsG1663" transform="translate(60.900000000000006, 426.30000000000007) scale(2.1)" fill="#0f457b"></use><use xlink:href="#SvgjsG1665" transform="translate(60.900000000000006, 487.20000000000005) scale(2.1)" fill="#0f457b"></use><use xlink:href="#SvgjsG1664" transform="translate(60.900000000000006, 548.1) scale(2.1)" fill="#0f457b"></use><use xlink:href="#SvgjsG1669" transform="translate(121.80000000000001, 0) scale(2.1)" fill="#0f457b"></use><use xlink:href="#SvgjsG1664" transform="translate(121.80000000000001, 60.900000000000006) scale(2.1)" fill="#0f457b"></use><use xlink:href="#SvgjsG1665" transform="translate(121.80000000000001, 121.80000000000001) scale(2.1)" fill="#0f457b"></use><use xlink:href="#SvgjsG1667" transform="translate(121.80000000000001, 182.70000000000002) scale(2.1)" fill="#0f457b"></use><use xlink:href="#SvgjsG1663" transform="translate(121.80000000000001, 243.60000000000002) scale(2.1)" fill="#0f457b"></use><use xlink:href="#SvgjsG1662" transform="translate(121.80000000000001, 304.5) scale(2.1)" fill="#0f457b"></use><use xlink:href="#SvgjsG1669" transform="translate(121.80000000000001, 365.40000000000003) scale(2.1)" fill="#0f457b"></use><use xlink:href="#SvgjsG1663" transform="translate(121.80000000000001, 426.30000000000007) scale(2.1)" fill="#0f457b"></use><use xlink:href="#SvgjsG1666" transform="translate(121.80000000000001, 487.20000000000005) scale(2.1)" fill="#0f457b"></use><use xlink:href="#SvgjsG1663" transform="translate(121.80000000000001, 548.1) scale(2.1)" fill="#0f457b"></use><use xlink:href="#SvgjsG1663" transform="translate(182.70000000000002, 0) scale(2.1)" fill="#0f457b"></use><use xlink:href="#SvgjsG1667" transform="translate(182.70000000000002, 60.900000000000006) scale(2.1)" fill="#0f457b"></use><use xlink:href="#SvgjsG1667" transform="translate(182.70000000000002, 121.80000000000001) scale(2.1)" fill="#0f457b"></use><use xlink:href="#SvgjsG1664" transform="translate(182.70000000000002, 182.70000000000002) scale(2.1)" fill="#0f457b"></use><use xlink:href="#SvgjsG1667" transform="translate(182.70000000000002, 243.60000000000002) scale(2.1)" fill="#0f457b"></use><use xlink:href="#SvgjsG1668" transform="translate(182.70000000000002, 304.5) scale(2.1)" fill="#0f457b"></use><use xlink:href="#SvgjsG1669" transform="translate(182.70000000000002, 365.40000000000003) scale(2.1)" fill="#0f457b"></use><use xlink:href="#SvgjsG1666" transform="translate(182.70000000000002, 426.30000000000007) scale(2.1)" fill="#0f457b"></use><use xlink:href="#SvgjsG1667" transform="translate(182.70000000000002, 487.20000000000005) scale(2.1)" fill="#0f457b"></use><use xlink:href="#SvgjsG1665" transform="translate(182.70000000000002, 548.1) scale(2.1)" fill="#0f457b"></use><use xlink:href="#SvgjsG1665" transform="translate(243.60000000000002, 0) scale(2.1)" fill="#0f457b"></use><use xlink:href="#SvgjsG1664" transform="translate(243.60000000000002, 60.900000000000006) scale(2.1)" fill="#0f457b"></use><use xlink:href="#SvgjsG1669" transform="translate(243.60000000000002, 121.80000000000001) scale(2.1)" fill="#0f457b"></use><use xlink:href="#SvgjsG1664" transform="translate(243.60000000000002, 182.70000000000002) scale(2.1)" fill="#0f457b"></use><use xlink:href="#SvgjsG1662" transform="translate(243.60000000000002, 243.60000000000002) scale(2.1)" fill="#0f457b"></use><use xlink:href="#SvgjsG1667" transform="translate(243.60000000000002, 304.5) scale(2.1)" fill="#0f457b"></use><use xlink:href="#SvgjsG1668" transform="translate(243.60000000000002, 365.40000000000003) scale(2.1)" fill="#0f457b"></use><use xlink:href="#SvgjsG1665" transform="translate(243.60000000000002, 426.30000000000007) scale(2.1)" fill="#0f457b"></use><use xlink:href="#SvgjsG1666" transform="translate(243.60000000000002, 487.20000000000005) scale(2.1)" fill="#0f457b"></use><use xlink:href="#SvgjsG1665" transform="translate(243.60000000000002, 548.1) scale(2.1)" fill="#0f457b"></use><use xlink:href="#SvgjsG1666" transform="translate(304.5, 0) scale(2.1)" fill="#0f457b"></use><use xlink:href="#SvgjsG1662" transform="translate(304.5, 60.900000000000006) scale(2.1)" fill="#0f457b"></use><use xlink:href="#SvgjsG1666" transform="translate(304.5, 121.80000000000001) scale(2.1)" fill="#0f457b"></use><use xlink:href="#SvgjsG1664" transform="translate(304.5, 182.70000000000002) scale(2.1)" fill="#0f457b"></use><use xlink:href="#SvgjsG1665" transform="translate(304.5, 243.60000000000002) scale(2.1)" fill="#0f457b"></use><use xlink:href="#SvgjsG1668" transform="translate(304.5, 304.5) scale(2.1)" fill="#0f457b"></use><use xlink:href="#SvgjsG1667" transform="translate(304.5, 365.40000000000003) scale(2.1)" fill="#0f457b"></use><use xlink:href="#SvgjsG1666" transform="translate(304.5, 426.30000000000007) scale(2.1)" fill="#0f457b"></use><use xlink:href="#SvgjsG1668" transform="translate(304.5, 487.20000000000005) scale(2.1)" fill="#0f457b"></use><use xlink:href="#SvgjsG1665" transform="translate(304.5, 548.1) scale(2.1)" fill="#0f457b"></use><use xlink:href="#SvgjsG1666" transform="translate(365.40000000000003, 0) scale(2.1)" fill="#0f457b"></use><use xlink:href="#SvgjsG1668" transform="translate(365.40000000000003, 60.900000000000006) scale(2.1)" fill="#0f457b"></use><use xlink:href="#SvgjsG1666" transform="translate(365.40000000000003, 121.80000000000001) scale(2.1)" fill="#0f457b"></use><use xlink:href="#SvgjsG1665" transform="translate(365.40000000000003, 182.70000000000002) scale(2.1)" fill="#0f457b"></use><use xlink:href="#SvgjsG1663" transform="translate(365.40000000000003, 243.60000000000002) scale(2.1)" fill="#0f457b"></use><use xlink:href="#SvgjsG1669" transform="translate(365.40000000000003, 304.5) scale(2.1)" fill="#0f457b"></use><use xlink:href="#SvgjsG1663" transform="translate(365.40000000000003, 365.40000000000003) scale(2.1)" fill="#0f457b"></use><use xlink:href="#SvgjsG1669" transform="translate(365.40000000000003, 426.30000000000007) scale(2.1)" fill="#0f457b"></use><use xlink:href="#SvgjsG1668" transform="translate(365.40000000000003, 487.20000000000005) scale(2.1)" fill="#0f457b"></use><use xlink:href="#SvgjsG1664" transform="translate(365.40000000000003, 548.1) scale(2.1)" fill="#0f457b"></use><use xlink:href="#SvgjsG1663" transform="translate(426.30000000000007, 0) scale(2.1)" fill="#0f457b"></use><use xlink:href="#SvgjsG1662" transform="translate(426.30000000000007, 60.900000000000006) scale(2.1)" fill="#0f457b"></use><use xlink:href="#SvgjsG1664" transform="translate(426.30000000000007, 121.80000000000001) scale(2.1)" fill="#0f457b"></use><use xlink:href="#SvgjsG1667" transform="translate(426.30000000000007, 182.70000000000002) scale(2.1)" fill="#0f457b"></use><use xlink:href="#SvgjsG1663" transform="translate(426.30000000000007, 243.60000000000002) scale(2.1)" fill="#0f457b"></use><use xlink:href="#SvgjsG1666" transform="translate(426.30000000000007, 304.5) scale(2.1)" fill="#0f457b"></use><use xlink:href="#SvgjsG1669" transform="translate(426.30000000000007, 365.40000000000003) scale(2.1)" fill="#0f457b"></use><use xlink:href="#SvgjsG1663" transform="translate(426.30000000000007, 426.30000000000007) scale(2.1)" fill="#0f457b"></use><use xlink:href="#SvgjsG1666" transform="translate(426.30000000000007, 487.20000000000005) scale(2.1)" fill="#0f457b"></use><use xlink:href="#SvgjsG1669" transform="translate(426.30000000000007, 548.1) scale(2.1)" fill="#0f457b"></use><use xlink:href="#SvgjsG1666" transform="translate(487.20000000000005, 0) scale(2.1)" fill="#0f457b"></use><use xlink:href="#SvgjsG1669" transform="translate(487.20000000000005, 60.900000000000006) scale(2.1)" fill="#0f457b"></use><use xlink:href="#SvgjsG1663" transform="translate(487.20000000000005, 121.80000000000001) scale(2.1)" fill="#0f457b"></use><use xlink:href="#SvgjsG1666" transform="translate(487.20000000000005, 182.70000000000002) scale(2.1)" fill="#0f457b"></use><use xlink:href="#SvgjsG1666" transform="translate(487.20000000000005, 243.60000000000002) scale(2.1)" fill="#0f457b"></use><use xlink:href="#SvgjsG1662" transform="translate(487.20000000000005, 304.5) scale(2.1)" fill="#0f457b"></use><use xlink:href="#SvgjsG1669" transform="translate(487.20000000000005, 365.40000000000003) scale(2.1)" fill="#0f457b"></use><use xlink:href="#SvgjsG1667" transform="translate(487.20000000000005, 426.30000000000007) scale(2.1)" fill="#0f457b"></use><use xlink:href="#SvgjsG1665" transform="translate(487.20000000000005, 487.20000000000005) scale(2.1)" fill="#0f457b"></use><use xlink:href="#SvgjsG1664" transform="translate(487.20000000000005, 548.1) scale(2.1)" fill="#0f457b"></use><use xlink:href="#SvgjsG1669" transform="translate(548.1, 0) scale(2.1)" fill="#0f457b"></use><use xlink:href="#SvgjsG1666" transform="translate(548.1, 60.900000000000006) scale(2.1)" fill="#0f457b"></use><use xlink:href="#SvgjsG1664" transform="translate(548.1, 121.80000000000001) scale(2.1)" fill="#0f457b"></use><use xlink:href="#SvgjsG1662" transform="translate(548.1, 182.70000000000002) scale(2.1)" fill="#0f457b"></use><use xlink:href="#SvgjsG1669" transform="translate(548.1, 243.60000000000002) scale(2.1)" fill="#0f457b"></use><use xlink:href="#SvgjsG1669" transform="translate(548.1, 304.5) scale(2.1)" fill="#0f457b"></use><use xlink:href="#SvgjsG1663" transform="translate(548.1, 365.40000000000003) scale(2.1)" fill="#0f457b"></use><use xlink:href="#SvgjsG1669" transform="translate(548.1, 426.30000000000007) scale(2.1)" fill="#0f457b"></use><use xlink:href="#SvgjsG1668" transform="translate(548.1, 487.20000000000005) scale(2.1)" fill="#0f457b"></use><use xlink:href="#SvgjsG1667" transform="translate(548.1, 548.1) scale(2.1)" fill="#0f457b"></use></g></defs></svg>